<?xml version="1.0" encoding="UTF-8"?>
<svg xmlns="http://www.w3.org/2000/svg" viewBox="0 0 300 300">
  <path d="M150 80c-38.7 0-70 31.3-70 70 0 30.9 20 57.2 47.9 66.4 3.5.6 4.8-1.5 4.8-3.4 0-1.7-.1-7.2-.1-13-17.6 3.2-22.2-4.1-23.6-7.8-.8-2-4.2-8.2-7.2-9.9-2.5-1.3-6-4.5-.1-4.6 5.5-.1 9.5 5.1 10.8 7.2 6.3 10.6 16.4 7.6 20.4 5.8.6-4.5 2.5-7.6 4.5-9.4-15.6-1.7-31.9-7.8-31.9-34.6 0-7.6 2.7-13.9 7.2-18.8-.7-1.7-3.2-8.9.7-18.5 0 0 5.8-1.9 19.3 7.2 5.6-1.6 11.5-2.4 17.5-2.4s11.9.8 17.5 2.4c13.4-9.1 19.3-7.2 19.3-7.2 3.8 9.7 1.4 16.8.7 18.5 4.5 4.9 7.2 11.2 7.2 18.8 0 26.9-16.4 32.8-31.9 34.6 2.5 2.2 4.8 6.4 4.8 12.9 0 9.4-.1 16.9-.1 19.3 0 1.9 1.3 4.1 4.8 3.4C200 207.2 220 180.9 220 150c0-38.7-31.3-70-70-70z" fill="#fff"/>
</svg>
