<svg xmlns="http://www.w3.org/2000/svg" viewBox="0 0 300 300" fill="currentColor">
  <path d="M150 0c-82.8375 0-150 67.1625-150 150 0 66.2775 42.975 122.5 102.5875 142.3588 7.4875 1.3875 9.9125-3.2625 9.9125-7.2125v-27.925c-41.725 9.075-50.4125-17.7-50.4125-17.7-6.825-17.3375-16.6625-21.95-16.6625-21.95-13.6125-9.3125 1.0375-9.1125 1.0375-9.1125 15.0625 1.05 22.9875 15.4625 22.9875 15.4625 13.375 22.925 35.0875 16.3 43.65 12.4625 1.3375-9.6875 5.225-16.3125 9.525-20.05-33.3125-3.8125-68.3375-16.675-68.3375-74.1375 0-16.3875 5.8625-29.7625 15.45-40.2625-1.55-3.7875-6.6875-19.05 1.4625-39.7 0 0 12.6-4.025 41.2625 15.375 11.9625-3.325 24.7875-4.9875 37.5375-5.05 12.75.0625 25.575 1.725 37.5375 5.05 28.6625-19.4 41.2625-15.375 41.2625-15.375 8.15 20.65 3.0125 35.9125 1.475 39.7 9.6 10.5 15.4375 23.875 15.4375 40.2625 0 57.5625-35.125 70.3125-68.6375 74.025 5.375 4.65 10.2875 13.775 10.2875 27.775v41.1625c0 3.9875 2.4 8.6875 10.0125 7.2c60.6-19.8625 102.5875-76.0875 102.5875-142.3625 0-82.8375-67.1625-150-150-150z"/>
</svg>
