<?xml version="1.0" encoding="UTF-8"?>
<svg xmlns="http://www.w3.org/2000/svg" version="1.1" viewBox="0 0 300 300">
  <path d="M150 30C82.7 30 30 82.7 30 150c0 53 34.4 97.9 82.1 113.9 6 1.1 7.9-2.6 7.9-5.8v-22.4c-33.4 7.3-40.4-14.1-40.4-14.1-5.5-13.9-13.3-17.6-13.3-17.6-10.9-7.5.8-7.3.8-7.3 12 .8 18.3 12.3 18.3 12.3 10.7 18.3 28 13 34.8 9.9 1.1-7.7 4.2-13 7.6-16C91 198 63.9 190 63.9 146c0-13.1 4.7-23.8 12.4-32.2-1.2-3-5.3-15.2 1.2-31.8 0 0 10.1-3.2 33 12.3 9.6-2.7 19.8-4 30-4s20.4 1.3 30 4c22.9-15.5 33-12.3 33-12.3 6.5 16.6 2.4 28.8 1.2 31.8 7.7 8.4 12.4 19.1 12.4 32.2 0 44.1-27.1 52-52.9 54.7 4.2 3.6 7.9 10.8 7.9 21.8v32.3c0 3.2 1.9 6.9 7.9 5.8C235.6 247.9 270 203 270 150c0-67.3-52.7-120-120-120z" fill="#fff"/>
</svg>
