<?xml version="1.0" encoding="UTF-8"?>
<svg id="Livello_1" xmlns="http://www.w3.org/2000/svg" version="1.1" viewBox="0 0 300 300">
  <!-- Generator: Adobe Illustrator 30.2.1, SVG Export Plug-In . SVG Version: 2.1.1 Build 1)  -->
  <path d="M149.9,108.9c-21.4,0-39,16.7-40.6,37.8l21.9,9.1c1.9-1.3,4.2-2,6.5-2,.2,0,.4,0,.6,0l9.7-14.2v-.2c0-8.6,6.9-15.5,15.4-15.5s15.4,7,15.4,15.5-6.9,15.5-15.4,15.5-.2,0-.3,0l-13.9,10c0,.2,0,.4,0,.6,0,6.4-5.2,11.6-11.5,11.6s-10.3-4-11.3-9.4l-15.6-6.5c4.8,17.3,20.6,29.9,39.2,29.9s40.8-18.4,40.8-41.1-18.3-41.1-40.8-41.1ZM134.8,171.3l-5-2.1c.9,1.9,2.4,3.4,4.5,4.3,4.4,1.9,9.5-.3,11.3-4.7.9-2.1.9-4.5,0-6.7-.9-2.2-2.5-3.8-4.7-4.7-2.1-.9-4.4-.9-6.4,0l5.2,2.2c3.3,1.4,4.8,5.1,3.4,8.4-1.4,3.3-5.1,4.8-8.3,3.5h0ZM173.6,139.4c0-5.7-4.6-10.3-10.2-10.3s-10.2,4.6-10.2,10.3,4.6,10.3,10.2,10.3,10.2-4.6,10.2-10.3ZM155.7,139.4c0-4.3,3.4-7.8,7.7-7.8s7.7,3.5,7.7,7.8-3.4,7.8-7.7,7.8-7.7-3.5-7.7-7.8h0Z" display="none" fill="#fff"/>
  <g display="none">
    <path d="M182.8,119.6c-6.1-2.9-12.6-4.9-19.5-6.1-.8,1.5-1.8,3.6-2.5,5.2-7.3-1.1-14.5-1.1-21.6,0-.7-1.6-1.7-3.7-2.5-5.2-6.8,1.2-13.4,3.3-19.5,6.1-12.3,18.6-15.7,36.8-14,54.7,8.2,6.1,16.1,9.8,23.9,12.2,1.9-2.6,3.6-5.5,5.1-8.4-2.8-1.1-5.5-2.4-8.1-3.9.7-.5,1.3-1,2-1.6,15.5,7.3,32.4,7.3,47.8,0,.6.5,1.3,1.1,2,1.6-2.6,1.5-5.3,2.9-8.1,3.9,1.5,3,3.2,5.8,5.1,8.4,7.8-2.4,15.7-6.1,23.9-12.2,2-20.8-3.3-38.8-14-54.7ZM134.3,163.3c-4.7,0-8.5-4.4-8.5-9.7s3.7-9.7,8.5-9.7,8.6,4.4,8.5,9.7c0,5.3-3.7,9.7-8.5,9.7ZM165.7,163.3c-4.7,0-8.5-4.4-8.5-9.7s3.7-9.7,8.5-9.7,8.6,4.4,8.5,9.7c0,5.3-3.7,9.7-8.5,9.7Z" fill="#fff"/>
  </g>
  <path d="M172.5,114.9h11.9l-26.1,29.8,30.5,40.4h-24l-18.8-24.5-21.5,24.5h-11.9l27.7-31.8-29.3-38.3h24.6l17,22.4,19.9-22.4ZM168.4,178.1h6.6l-42.7-56.4h-7.1l43.2,56.4Z" display="none" fill="#fff"/>
  <path d="M120.6,114.1l-4.8,12.3v50.3h17.1v9.1h9.6l9.1-9.1h13.9l18.7-18.7v-43.9h-63.7ZM177.8,154.8l-10.7,10.7h-17.1l-9.1,9.1v-9.1h-14.5v-45h51.4v34.3ZM167.1,132.9v18.7h-6.4v-18.7s6.4,0,6.4,0ZM150,132.9v18.7h-6.4v-18.7s6.4,0,6.4,0Z" display="none" fill="#fff" fill-rule="evenodd"/>
  <path d="M187,131.4c-.9-3.3-3.5-5.9-6.8-6.8-6-1.6-30.1-1.6-30.1-1.6,0,0-24.1,0-30.1,1.6-3.3.9-5.9,3.5-6.8,6.8-1.6,6-1.6,18.6-1.6,18.6,0,0,0,12.6,1.6,18.6.9,3.3,3.5,5.9,6.8,6.8,6,1.6,30.1,1.6,30.1,1.6,0,0,24.1,0,30.1-1.6,3.3-.9,5.9-3.5,6.8-6.8,1.6-6,1.6-18.6,1.6-18.6,0,0,0-12.6-1.6-18.6ZM142.3,161.6v-23.1l20,11.6-20,11.6Z" fill="#fff"/>
</svg>